# xmcd
#
# Track frame offsets:
# 187
# 89560
# 186972
#
# Disc length: 4106 seconds
#
#
# Revision: 2
# Processed by: cddbd v1.5.1PL0 Copyright (c) Steve Scherf et al.
# Submitted via: FreeRIP 2.942 
#
DISCID=22100803
DTITLE=Tchaikovsky - Hamlet, Romeo and Juliet - London Philharmonic Orchestra, John Farrer, Conductor
DYEAR=1993
DGENRE=
TTITLE0=Hamlet
TTITLE1=Romeo and Juliet
TTITLE2=Francesca da Rimini
EXTD=Musical Heritage Society\nOriginal recorded 2/23 and 2/24 1989 in St Peter's Morden 
EXTT0=
EXTT1=
EXTT2=
PLAYORDER=
